<?xml version="1.0" ?><!-- Uploaded to: SVG Repo, www.svgrepo.com, Generator: SVG Repo Mixer Tools -->
<svg width="800px" height="800px" viewBox="0 0 28 28" fill="none" xmlns="http://www.w3.org/2000/svg"><path d="M24.2441 9.62695L21.293 6.67676L21.3125 17C21.3125 17.5527 20.8652 18 20.3125 18C19.7617 18 19.3125 17.5527 19.3125 17L19.293 6.74707L16.4141 9.62695C16.0234 10.0166 15.3906 10.0166 15 9.62695C14.6094 9.23633 14.6094 8.60254 15 8.21191L19.1152 4.09668C19.3887 3.73438 19.8242 3.5 20.3125 3.5C20.6934 3.5 21.0391 3.64062 21.3027 3.87305C21.3418 3.90234 21.3789 3.93457 21.4141 3.96973L25.6582 8.21191C26.0488 8.60254 26.0488 9.23633 25.6582 9.62695C25.2676 10.0166 24.6348 10.0166 24.2441 9.62695Z" fill="#000000"/><path d="M2 7.2998C2 6.8584 2.35742 6.5 2.80078 6.5H10.6992C10.8906 6.5 11.0664 6.56641 11.2031 6.67773C11.3848 6.82422 11.5 7.04883 11.5 7.2998V7.7002C11.5 8.1416 11.1426 8.5 10.6992 8.5H2.80078C2.56836 8.5 2.35938 8.40234 2.21289 8.24512C2.13086 8.1582 2.07031 8.05273 2.03516 7.93555C2.01172 7.86133 2 7.78223 2 7.7002V7.2998Z" fill="#000000"/><path d="M2.50586 14.5566C2.42969 14.5869 2.35938 14.6279 2.29688 14.6787C2.11523 14.8252 2 15.0488 2 15.2998V15.7002C2 16.1416 2.35742 16.5 2.80078 16.5H15.1992C15.6426 16.5 16 16.1416 16 15.7002V15.2998C16 14.8584 15.6426 14.5 15.1992 14.5H2.80078C2.69727 14.5 2.59766 14.5205 2.50586 14.5566Z" fill="#000000"/><path d="M2.07422 22.9648C2.02734 23.0664 2 23.1797 2 23.2998V23.7002C2 23.9551 2.11914 24.1826 2.30469 24.3291C2.44141 24.4365 2.61328 24.5 2.80078 24.5H24.2767C24.7201 24.5 25.0775 24.1416 25.0775 23.7002V23.2998C25.0775 22.8584 24.7201 22.5 24.2767 22.5H2.80078C2.47852 22.5 2.20117 22.6904 2.07422 22.9648Z" fill="#000000"/></svg>