<?xml version="1.0" encoding="utf-8"?>

<!DOCTYPE svg PUBLIC "-//W3C//DTD SVG 1.1//EN" "http://www.w3.org/Graphics/SVG/1.1/DTD/svg11.dtd">
<!-- Uploaded to: SVG Repo, www.svgrepo.com, Generator: SVG Repo Mixer Tools -->
<svg height="800px" width="800px" version="1.1" id="_x32_" xmlns="http://www.w3.org/2000/svg" xmlns:xlink="http://www.w3.org/1999/xlink" 
	 viewBox="0 0 512 512"  xml:space="preserve">
<style type="text/css">
	.st0{fill:#000000;}
</style>
<g>
	<polygon class="st0" points="168.548,269.165 196.66,275.239 213.052,199.29 184.94,193.216 	"/>
	<path class="st0" d="M449.358,358.86c2.01,3.679,3.164,7.933,3.164,12.485c0,14.492-11.735,26.224-26.236,26.224
		c-14.496,0-26.232-11.732-26.232-26.224c0-4.552,1.153-8.806,3.165-12.485h-32.157c-3.284,0-6.444,0.515-9.433,1.44
		c-0.578,3.567-0.922,7.247-0.922,11.046c0,36.239,29.336,65.583,65.579,65.583c36.247,0,65.583-29.344,65.583-65.583
		c0-4.262-0.402-8.464-1.205-12.485H449.358z"/>
	<path class="st0" d="M103.55,358.86h-2.818c2.015,3.679,3.161,7.933,3.161,12.485c0,14.492-11.735,26.224-26.228,26.224
		c-14.497,0-26.232-11.732-26.232-26.224c0-4.552,1.146-8.806,3.164-12.485h-41.31c-0.806,4.022-1.209,8.223-1.209,12.485
		c0,36.239,29.344,65.583,65.587,65.583c31.694,0,58.161-22.434,64.258-52.359v-4.597C141.924,360.412,112.524,358.86,103.55,358.86
		z"/>
	<path class="st0" d="M512,347.374c0,0,0.008-101.643-67.113-101.643H304.564c1.877,4.418,4.53,8.47,8.008,11.515
		c15.336,13.426,26.847,61.359-5.754,70.949H176.416l-24.926-24.926l36.434-168.757h57.333c5.403,0,9.784-4.38,9.784-9.783v-9.963
		c0-5.404-4.381-9.784-9.784-9.784h-51.583c0,0-15.336-29.911-84.371-29.911v63.285h32.221l-1.541,9.582L97.8,236.149
		c0,0-97.8,23.008-97.8,111.225c0,0,80.539,0,103.55,0c23.012,0,49.863,7.672,49.863,32.598h174.991l1.134-3.224
		c6.213-17.597,22.855-29.374,41.524-29.374H512z"/>
	<path class="st0" d="M444.887,232.313v-11.687c0-12.604-10.22-22.821-22.832-22.821H314.486c-13.343,0-16.325,19.463-9.922,34.508
		H444.887z"/>
</g>
</svg>